<svg width="22" height="22" viewBox="0 0 22 22" fill="none" xmlns="http://www.w3.org/2000/svg">
<path d="M21.7312 20.4351L15.475 14.1789C16.6868 12.682 17.4165 10.7799 17.4165 8.70826C17.4165 3.90681 13.5097 0 8.70822 0C3.90677 0 0 3.90677 0 8.70822C0 13.5097 3.90681 17.4165 8.70826 17.4165C10.7799 17.4165 12.682 16.6868 14.1789 15.475L20.4351 21.7312C20.6138 21.9099 20.8484 21.9998 21.0831 21.9998C21.3178 21.9998 21.5525 21.9099 21.7312 21.7312C22.0896 21.3728 22.0896 20.7934 21.7312 20.4351ZM8.70826 15.5832C4.91695 15.5832 1.83333 12.4995 1.83333 8.70822C1.83333 4.91691 4.91695 1.83329 8.70826 1.83329C12.4996 1.83329 15.5832 4.91691 15.5832 8.70822C15.5832 12.4995 12.4995 15.5832 8.70826 15.5832Z" fill="#4C858B"/>
</svg>
